# Blender v2.79 (sub 0) OBJ File: 'crystals.blend'
# www.blender.org
mtllib crystals.mtl
o crystals_Circle
v -0.000002 2.518708 0.000729
v 0.000000 0.676087 -0.861216
v -0.608972 0.675987 -0.608972
v -0.861216 0.675745 -0.000000
v -0.608972 0.675505 0.608971
v -0.000000 0.675406 0.861216
v 0.608972 0.675506 0.608972
v 0.861216 0.675747 -0.000000
v 0.608972 0.675988 -0.608972
v 0.000003 -1.537503 -0.469214
v -0.330889 -1.537557 -0.332155
v -0.467948 -1.537688 -0.001263
v -0.330889 -1.537819 0.329628
v 0.000003 -1.537873 0.466688
v 0.330894 -1.537818 0.329628
v 0.467954 -1.537687 -0.001263
v 0.330894 -1.537556 -0.332154
vt 0.319468 0.544811
vt 0.503219 0.961740
vt 0.364173 0.544788
vt 0.364173 0.544788
vt 0.502398 0.544733
vt 0.640623 0.544679
vt 0.685329 0.544656
vt 0.640623 0.544679
vt 0.502398 0.544734
vt 0.427006 0.042356
vt 0.395896 0.042368
vt 0.427006 0.042355
vt 0.502112 0.042326
vt 0.577218 0.042296
vt 0.608328 0.042284
vt 0.577218 0.042296
vt 0.502112 0.042326
vn 0.0000 0.1222 -0.9925
vn 0.0000 1.0000 0.0004
vn 0.7018 0.1220 -0.7018
vn -0.7018 0.1220 -0.7018
vn -0.9926 0.1217 0.0001
vn -0.7018 0.1213 0.7019
vn 0.0000 0.1212 0.9926
vn 0.7018 0.1213 0.7019
vn 0.9926 0.1217 0.0001
vn 0.6962 -0.1745 -0.6963
vn 0.0000 -0.1744 -0.9846
vn -0.6962 -0.1745 -0.6963
vn -0.9846 -0.1749 -0.0001
vn -0.6962 -0.1753 0.6961
vn 0.0000 -0.1755 0.9845
vn 0.6962 -0.1753 0.6961
vn 0.9846 -0.1749 -0.0001
usemtl Material
s 1
f 2/1/1 1/2/2 9/3/3
f 3/4/4 1/2/2 2/1/1
f 4/5/5 1/2/2 3/4/4
f 5/6/6 1/2/2 4/5/5
f 6/7/7 1/2/2 5/6/6
f 7/8/8 1/2/2 6/7/7
f 8/9/9 1/2/2 7/8/8
f 9/3/3 1/2/2 8/9/9
f 17/10/10 10/11/11 2/1/1 9/3/3
f 10/11/11 11/12/12 3/4/4 2/1/1
f 11/12/12 12/13/13 4/5/5 3/4/4
f 12/13/13 13/14/14 5/6/6 4/5/5
f 14/15/15 6/7/7 5/6/6 13/14/14
f 14/15/15 15/16/16 7/8/8 6/7/7
f 15/16/16 16/17/17 8/9/9 7/8/8
f 16/17/17 17/10/10 9/3/3 8/9/9
